<svg width="15" height="15" viewBox="0 0 15 15" fill="none" xmlns="http://www.w3.org/2000/svg">
<g clip-path="url(#clip0_14_487)">
<path d="M11.6431 6.34814C11.6431 5.26336 11.2122 4.223 10.4451 3.45595C9.67808 2.68889 8.63773 2.25796 7.55295 2.25796C6.46816 2.25796 5.42781 2.68889 4.66075 3.45595C3.89369 4.223 3.46276 5.26336 3.46276 6.34814C3.46276 8.02603 4.80525 10.2129 7.55295 12.8324C10.3006 10.2129 11.6431 8.02603 11.6431 6.34814ZM7.55295 14.074C4.2199 11.0446 2.55383 8.46867 2.55383 6.34814C2.55383 5.02229 3.08052 3.75075 4.01804 2.81324C4.95555 1.87572 6.2271 1.34903 7.55295 1.34903C8.87879 1.34903 10.1503 1.87572 11.0879 2.81324C12.0254 3.75075 12.5521 5.02229 12.5521 6.34814C12.5521 8.46867 10.886 11.0446 7.55295 14.074Z" fill="#035176"/>
<path d="M7.55296 7.71152C7.91456 7.71152 8.26134 7.56788 8.51703 7.3122C8.77272 7.05651 8.91636 6.70972 8.91636 6.34813C8.91636 5.98654 8.77272 5.63975 8.51703 5.38406C8.26134 5.12838 7.91456 4.98474 7.55296 4.98474C7.19137 4.98474 6.84458 5.12838 6.5889 5.38406C6.33321 5.63975 6.18957 5.98654 6.18957 6.34813C6.18957 6.70972 6.33321 7.05651 6.5889 7.3122C6.84458 7.56788 7.19137 7.71152 7.55296 7.71152ZM7.55296 8.62045C6.95031 8.62045 6.37233 8.38105 5.94619 7.95491C5.52004 7.52876 5.28064 6.95079 5.28064 6.34813C5.28064 5.74547 5.52004 5.1675 5.94619 4.74135C6.37233 4.31521 6.95031 4.07581 7.55296 4.07581C8.15562 4.07581 8.7336 4.31521 9.15974 4.74135C9.58588 5.1675 9.82529 5.74547 9.82529 6.34813C9.82529 6.95079 9.58588 7.52876 9.15974 7.95491C8.7336 8.38105 8.15562 8.62045 7.55296 8.62045Z" fill="#035176"/>
</g>
<defs>
<clipPath id="clip0_14_487">
<rect width="14.5429" height="14.5429" fill="white" transform="translate(0.281616 0.440094)"/>
</clipPath>
</defs>
</svg>
